# xmcd
#
# Track frame offsets:
#	150
#	21239
#	42412
#	61793
#	91014
#	118111
#	135986
#	164419
#
# Disc length: 2439 seconds
#
# Revision: 0
# Processed by: cddbd v1.5.2PL0 Copyright (c) Steve Scherf et al.
# Submitted via: EasyCDDAExtractor 11.5.3.1
#
DISCID=5f098508
DTITLE=Margie Evans - Another Blues Day
DYEAR=1984
DGENRE=Blues
TTITLE0=Another Blues Day
TTITLE1=Loser
TTITLE2=I've Been Buked (a capella vocal)
TTITLE3=The Lighthouse
TTITLE4=Come To Me
TTITLE5=Let The Telephone Ring
TTITLE6=I've Been There
TTITLE7=Chilly Waters
EXTD=
EXTT0=
EXTT1=
EXTT2=
EXTT3=
EXTT4=
EXTT5=
EXTT6=
EXTT7=
PLAYORDER=
